<svg width="25" height="25" viewBox="0 0 25 25" fill="none" xmlns="http://www.w3.org/2000/svg">
<g clip-path="url(#clip0_41_112)">
<path d="M12.6016 11.4301C12.6016 14.9471 11.5926 18.2291 9.84856 21.0011M6.40856 18.9611L6.46256 18.8711C7.86508 16.643 8.60679 14.0628 8.60156 11.4301C8.60156 10.3692 9.02299 9.3518 9.77314 8.60165C10.5233 7.85151 11.5407 7.43008 12.6016 7.43008C13.6624 7.43008 14.6798 7.85151 15.43 8.60165C16.1801 9.3518 16.6016 10.3692 16.6016 11.4301C16.6016 12.4471 16.5316 13.4491 16.3986 14.4301M14.2806 21.2741C14.8978 20.0426 15.3973 18.7555 15.7726 17.4301M19.6116 18.5621C20.2566 16.2961 20.6016 13.9031 20.6016 11.4301C20.6019 10.0256 20.2325 8.64585 19.5304 7.42945C18.8284 6.21305 17.8185 5.20289 16.6023 4.50053C15.3861 3.79817 14.0065 3.42836 12.602 3.42828C11.1976 3.4282 9.81785 3.79786 8.60156 4.50008M3.60156 15.7941C4.24156 14.4751 4.60156 12.9941 4.60156 11.4301C4.60156 9.97308 4.99156 8.60708 5.67156 7.43008" stroke="black" stroke-width="2" stroke-linecap="round" stroke-linejoin="round"/>
</g>
<defs>
<clipPath id="clip0_41_112">
<rect width="24" height="24" fill="white" transform="translate(0.601562 0.430054)"/>
</clipPath>
</defs>
</svg>
