<svg width="237" height="61" viewBox="0 0 237 61" fill="none" xmlns="http://www.w3.org/2000/svg">
<path fill-rule="evenodd" clip-rule="evenodd" d="M48.7861 22.7949L55.1338 22.4902L59.5264 31.6309L59.7295 22.9981L65.7217 22.7949L64.8076 40.0098L58.1553 40.6191L54.6006 31.4023L54.042 40.7969H48.3291L48.7861 22.7949ZM47.0417 35.1245C47.082 35.0125 47.1202 34.8993 47.1561 34.785C47.1646 34.758 47.173 34.7309 47.1812 34.7038C47.2244 34.5615 47.2643 34.4174 47.3008 34.2715C47.3057 34.2517 47.3105 34.2319 47.3152 34.2121C47.3194 34.1948 47.3235 34.1775 47.3275 34.1602C47.331 34.1454 47.3344 34.1305 47.3378 34.1157C47.4672 33.5485 47.5419 32.9657 47.5619 32.3672C47.5633 32.325 47.5644 32.2826 47.5653 32.2402C47.5667 32.1727 47.5674 32.105 47.5674 32.0371C47.5674 31.8035 47.5603 31.5741 47.5461 31.349C47.5382 31.2251 47.5283 31.1024 47.5161 30.9811C47.5087 30.907 47.5005 30.8334 47.4915 30.7603C47.4747 30.624 47.4551 30.4893 47.4327 30.3563C47.431 30.3458 47.4292 30.3353 47.4274 30.3249C47.4169 30.2638 47.4058 30.2031 47.3941 30.1427C47.3726 30.0317 47.3492 29.9218 47.3237 29.8132C47.3144 29.7736 47.3049 29.7343 47.2951 29.6951C47.2813 29.6399 47.267 29.585 47.2521 29.5304C47.1768 29.2532 47.0879 28.9841 46.9855 28.7231C46.9806 28.7106 46.9757 28.698 46.9707 28.6856C46.9474 28.6254 46.9236 28.5657 46.8992 28.5067C46.864 28.4216 46.8275 28.3376 46.7899 28.2548C46.7328 28.1291 46.6729 28.0061 46.6102 27.8856C46.4261 27.532 46.2178 27.2008 45.9853 26.8919C45.9843 26.8906 45.9833 26.8893 45.9823 26.888C45.9654 26.8655 45.9482 26.8431 45.931 26.8208C45.8678 26.7391 45.8029 26.6591 45.7363 26.5806C45.6742 26.5075 45.6107 26.4358 45.5456 26.3655C45.4684 26.2821 45.3891 26.2006 45.3076 26.1211C44.9642 25.7776 44.5851 25.4727 44.1706 25.2063C44.1312 25.181 44.0915 25.156 44.0515 25.1314C44.0033 25.1017 43.9545 25.0726 43.9053 25.0439C43.855 25.0146 43.8042 24.9858 43.7529 24.9575C43.6354 24.8928 43.5154 24.8308 43.3928 24.7716C43.3861 24.7684 43.3794 24.7652 43.3727 24.7619C43.3217 24.7375 43.2703 24.7136 43.2184 24.6901C43.0559 24.6165 42.889 24.5476 42.7178 24.4834C42.4467 24.3809 42.1676 24.2922 41.8805 24.2172C41.8633 24.2127 41.8461 24.2083 41.8288 24.2039C41.785 24.1928 41.7411 24.182 41.6969 24.1714C41.0703 24.0224 40.4066 23.9376 39.7058 23.9171C39.6437 23.9152 39.5813 23.9139 39.5186 23.9131C39.468 23.9124 39.4172 23.9121 39.3662 23.9121C38.8784 23.9121 38.4062 23.9555 37.9496 24.0423C37.6932 24.091 37.4418 24.1534 37.1953 24.2295C37.1757 24.2356 37.1561 24.2417 37.1365 24.2479C37.0779 24.2665 37.0195 24.2857 36.9616 24.3055C36.674 24.404 36.3948 24.5178 36.1241 24.6469C35.9257 24.7416 35.7318 24.8446 35.5424 24.9558C35.5074 24.9764 35.4726 24.9972 35.4379 25.0183C35.3843 25.0509 35.3311 25.0842 35.2783 25.1182C35.1844 25.1794 35.092 25.2425 35.001 25.3074C34.9724 25.3278 34.9439 25.3484 34.9156 25.3692C34.4733 25.6935 34.0652 26.0627 33.6914 26.4766C33.6909 26.4772 33.6903 26.4778 33.6898 26.4783C33.6437 26.5294 33.5983 26.5809 33.5534 26.633C33.5512 26.6356 33.5489 26.6383 33.5466 26.6409C33.4583 26.7437 33.3725 26.8483 33.2892 26.9547C33.2868 26.9578 33.2844 26.9609 33.282 26.964C33.167 27.1114 33.0568 27.2624 32.9513 27.417C32.9195 27.4636 32.8881 27.5105 32.8572 27.5578C32.7205 27.7666 32.5924 27.9817 32.4727 28.2031C32.4074 28.327 32.3451 28.4525 32.2857 28.5797C32.262 28.6306 32.2387 28.6818 32.216 28.7332C32.2157 28.7338 32.2154 28.7344 32.2152 28.735C32.1282 28.9313 32.0483 29.1314 31.9753 29.3354C31.9703 29.3491 31.9655 29.3629 31.9606 29.3766C31.885 29.5911 31.8171 29.8099 31.7567 30.033C31.7409 30.0913 31.7257 30.15 31.7109 30.209C31.7004 30.2507 31.6901 30.2925 31.6802 30.3343C31.6778 30.3444 31.6754 30.3545 31.6731 30.3646C31.6697 30.3791 31.6664 30.3935 31.6631 30.4081C31.6529 30.4527 31.643 30.4974 31.6336 30.5422C31.6224 30.5951 31.6117 30.648 31.6015 30.701C31.5902 30.7597 31.5796 30.8185 31.5695 30.8774C31.5043 31.2591 31.4646 31.6457 31.4503 32.0371C31.4479 32.1047 31.4462 32.1724 31.4452 32.2402C31.4446 32.2825 31.4443 32.3248 31.4443 32.3672C31.4443 32.3757 31.4443 32.3841 31.4444 32.3926C31.445 32.623 31.4544 32.8506 31.4725 33.0755C31.4725 33.0764 31.4726 33.0773 31.4727 33.0781C31.4734 33.0865 31.4741 33.0949 31.4748 33.1033C31.4949 33.3433 31.5249 33.5802 31.565 33.8139C31.5789 33.895 31.594 33.9758 31.6103 34.0561C31.619 34.0993 31.6281 34.1424 31.6376 34.1853C31.6439 34.2143 31.6505 34.2432 31.6572 34.2721C31.6778 34.3612 31.7 34.4499 31.7236 34.5381C31.727 34.55 31.7303 34.5619 31.7337 34.5738C31.7339 34.5743 31.734 34.5748 31.7342 34.5753C31.7494 34.629 31.7652 34.6824 31.7813 34.7356C31.7899 34.764 31.7987 34.7923 31.8076 34.8206C31.8233 34.8706 31.8394 34.9203 31.8558 34.9699C31.97 35.3131 32.1027 35.6454 32.2539 35.9668C32.338 36.1456 32.4278 36.3211 32.5234 36.4932C32.5899 36.6083 32.6589 36.7216 32.7304 36.8331C32.76 36.8793 32.7901 36.9252 32.8206 36.9707C32.8553 37.0226 32.8906 37.074 32.9263 37.125C32.9921 37.2186 33.0596 37.3108 33.1291 37.4017C33.258 37.5704 33.3935 37.7343 33.5353 37.8934C33.5685 37.9306 33.602 37.9675 33.6359 38.0041C33.6469 38.0161 33.658 38.0281 33.6692 38.04C33.7017 38.0748 33.7345 38.1093 33.7676 38.1436C34.1811 38.5571 34.6336 38.9225 35.1252 39.2399C35.2172 39.2993 35.3105 39.3571 35.4053 39.4131C35.4162 39.4194 35.4271 39.4257 35.438 39.4319C35.487 39.4599 35.5362 39.4873 35.5857 39.5143C35.6049 39.5248 35.6241 39.5351 35.6434 39.5454C36.0214 39.7474 36.4155 39.9204 36.8258 40.0643C36.8403 40.0694 36.8548 40.0744 36.8693 40.0794C37.0223 40.1321 37.1775 40.1809 37.335 40.2256C37.5266 40.2793 37.7208 40.3257 37.9176 40.3646C38.2103 40.4224 38.5087 40.4639 38.8127 40.4889C38.9952 40.504 39.1797 40.5131 39.3662 40.5163C39.4168 40.5171 39.4676 40.5176 39.5186 40.5176C39.5759 40.5176 39.6331 40.517 39.69 40.516C39.6917 40.5159 39.6934 40.5159 39.6951 40.5159C40.4173 40.5018 41.1032 40.4008 41.7529 40.2129C41.8682 40.1782 41.982 40.1413 42.0943 40.1022C42.1071 40.0978 42.12 40.0933 42.1328 40.0888C42.3537 40.0107 42.5689 39.9243 42.7782 39.8294C42.796 39.8214 42.8136 39.8133 42.8313 39.8051C42.9022 39.7723 42.9725 39.7386 43.0421 39.7038C43.2618 39.5942 43.4749 39.4748 43.6813 39.3457C43.6859 39.3428 43.6906 39.3399 43.6953 39.3369C43.8688 39.2294 44.0371 39.1159 44.2 38.9963C44.2004 38.996 44.2007 38.9958 44.2011 38.9955C44.2299 38.9744 44.2586 38.953 44.287 38.9315C44.6548 38.6536 44.995 38.3444 45.3076 38.0039C45.3464 37.9618 45.3846 37.9193 45.4223 37.8765C45.4411 37.8553 45.4597 37.8339 45.4783 37.8125C45.5509 37.7284 45.6218 37.6431 45.6907 37.5565C45.695 37.5511 45.6993 37.5457 45.7036 37.5403C45.7366 37.4986 45.7691 37.4567 45.8013 37.4145C46.074 37.0561 46.3157 36.6771 46.5264 36.2773C46.593 36.1541 46.6565 36.0292 46.7169 35.9027C46.7413 35.8514 46.7653 35.7999 46.7888 35.7481C46.8645 35.5808 46.9348 35.4108 46.9999 35.2379C47.0133 35.2024 47.0264 35.1667 47.0394 35.1309C47.0401 35.1288 47.0409 35.1266 47.0417 35.1245ZM41.7342 31.2122C41.7307 31.2016 41.7271 31.191 41.7235 31.1805C41.6821 31.0591 41.634 30.9433 41.5793 30.833C41.5705 30.8152 41.5615 30.7975 41.5523 30.78C41.5489 30.7734 41.5454 30.7668 41.5419 30.7603C41.5269 30.7323 41.5115 30.7047 41.4957 30.6774C41.4847 30.6585 41.4734 30.6397 41.462 30.6211C41.4402 30.5857 41.4176 30.551 41.3942 30.5169C41.3668 30.4768 41.3382 30.4377 41.3086 30.3994C41.2827 30.3649 41.256 30.3313 41.2285 30.2985C41.2135 30.2807 41.1983 30.2632 41.1828 30.2459C41.1756 30.2379 41.1684 30.23 41.1611 30.2221C41.145 30.2046 41.1287 30.1874 41.1121 30.1705C41.0628 30.1203 41.0112 30.0726 40.9574 30.0273C40.9279 30.0025 40.8978 29.9784 40.8669 29.9551C40.825 29.9234 40.7818 29.893 40.7374 29.864C40.7274 29.8575 40.7174 29.851 40.7073 29.8447C40.7028 29.8418 40.6982 29.8389 40.6936 29.8361C40.6461 29.8066 40.5972 29.7785 40.5469 29.752C40.5343 29.7448 40.5216 29.7377 40.5088 29.7308C40.4535 29.7009 40.3965 29.6739 40.338 29.6498C40.3271 29.6453 40.3161 29.6409 40.3051 29.6366C40.2972 29.6335 40.2894 29.6305 40.2815 29.6276C40.0509 29.5412 39.7966 29.4981 39.5186 29.4981C39.4671 29.4981 39.4163 29.4993 39.3662 29.5017C39.1832 29.5105 39.0097 29.5354 38.8456 29.5764C38.8151 29.584 38.7849 29.5922 38.7551 29.6009C38.7333 29.6073 38.7117 29.614 38.6902 29.621C38.6512 29.6337 38.6128 29.6473 38.5749 29.662C38.5333 29.6781 38.4924 29.6954 38.4521 29.7139C38.4067 29.7347 38.3622 29.7568 38.3186 29.7799C38.3078 29.7857 38.2971 29.7915 38.2864 29.7973C38.1827 29.8544 38.0841 29.918 37.9907 29.9884C37.9743 30.0008 37.958 30.0134 37.9418 30.0262C37.9381 30.0291 37.9344 30.0321 37.9308 30.035C37.9125 30.0497 37.8944 30.0646 37.8766 30.0798C37.8486 30.1036 37.8212 30.1281 37.7942 30.1532C37.7889 30.1581 37.7837 30.1631 37.7784 30.1681C37.7305 30.2135 37.6843 30.261 37.6396 30.3106C37.6164 30.3365 37.5938 30.3629 37.5717 30.3898C37.4934 30.4852 37.4223 30.5872 37.3582 30.6956C37.3569 30.6979 37.3555 30.7001 37.3542 30.7024C37.3433 30.721 37.3326 30.7399 37.322 30.7589C37.3128 30.7757 37.3037 30.7926 37.2947 30.8096C37.2644 30.8675 37.2359 30.927 37.2094 30.9882C37.1981 31.0143 37.1871 31.0406 37.1764 31.0673C37.1609 31.1063 37.146 31.1461 37.1318 31.1865C37.1306 31.1901 37.1293 31.1936 37.128 31.1972C37.1154 31.2329 37.1034 31.269 37.0921 31.3052C37.0682 31.3819 37.0474 31.4597 37.0297 31.5387C37.0286 31.5437 37.0274 31.5488 37.0263 31.5538C37.0161 31.6008 37.0069 31.6482 36.9988 31.696C36.9972 31.7057 36.9956 31.7154 36.994 31.7251C36.9892 31.7555 36.9848 31.7861 36.9808 31.8168C36.9714 31.8893 36.9645 31.9628 36.9601 32.0371C36.9561 32.1041 36.9541 32.1718 36.9541 32.2402C36.9541 32.2826 36.9548 32.3249 36.9563 32.3672C36.9565 32.3757 36.9569 32.3841 36.9572 32.3926C36.9594 32.4459 36.9627 32.4992 36.9672 32.5525C36.9703 32.5902 36.974 32.6279 36.9783 32.6656C36.9801 32.6814 36.982 32.6972 36.984 32.713C36.9903 32.7621 36.9975 32.8113 37.0056 32.8605C37.0159 32.9225 37.0278 32.9845 37.0412 33.0466C37.0456 33.067 37.0502 33.0874 37.0549 33.1077C37.0703 33.174 37.0875 33.2403 37.1064 33.3066C37.1256 33.3736 37.1465 33.4394 37.1693 33.5039C37.1785 33.5301 37.188 33.5561 37.1978 33.5819C37.2199 33.64 37.2435 33.697 37.2686 33.753C37.281 33.7808 37.2938 33.8083 37.307 33.8356C37.3378 33.8995 37.3707 33.962 37.4056 34.0232C37.4283 34.063 37.4519 34.1023 37.4764 34.1411C37.5043 34.1853 37.5333 34.2288 37.5635 34.2715C37.574 34.2864 37.5846 34.3011 37.5954 34.3157C37.5984 34.3198 37.6014 34.3239 37.6044 34.3279C37.6202 34.349 37.6362 34.3698 37.6525 34.3903C37.6994 34.4493 37.7484 34.5057 37.7997 34.5595C37.8443 34.6064 37.8905 34.6513 37.9385 34.6942C37.9803 34.7317 38.0235 34.7677 38.0679 34.8023C38.0827 34.8138 38.0976 34.8251 38.1127 34.8363C38.1767 34.8838 38.2434 34.9282 38.3125 34.9697C38.431 35.0389 38.5566 35.0946 38.6892 35.1368C38.6992 35.14 38.7092 35.1431 38.7193 35.1461C38.7317 35.1498 38.7441 35.1535 38.7566 35.157C38.7621 35.1585 38.7675 35.16 38.7729 35.1614C38.9576 35.2114 39.1554 35.2363 39.3662 35.2363C39.4177 35.2363 39.4685 35.2351 39.5186 35.2325C39.7675 35.2198 39.9989 35.1756 40.2128 35.0998C40.2315 35.0932 40.2501 35.0863 40.2685 35.0792C40.3244 35.0576 40.3791 35.0338 40.4326 35.0078C40.4586 34.9948 40.4843 34.9815 40.5096 34.9678C40.607 34.9153 40.6994 34.8579 40.787 34.7956C40.7994 34.7868 40.8117 34.7778 40.8239 34.7688C40.8332 34.762 40.8424 34.7551 40.8515 34.7481C40.9016 34.7101 40.9499 34.6703 40.9965 34.6289C41.0007 34.6251 41.0049 34.6214 41.0091 34.6177C41.0896 34.5451 41.165 34.4674 41.2353 34.3846C41.2386 34.3808 41.2419 34.3769 41.2451 34.3731C41.2579 34.3573 41.2706 34.3414 41.283 34.3254C41.2855 34.3222 41.2879 34.3191 41.2903 34.3159C41.2911 34.3149 41.2919 34.3138 41.2927 34.3128C41.4019 34.1709 41.4977 34.0189 41.58 33.8569C41.5816 33.8538 41.5832 33.8507 41.5848 33.8476C41.6079 33.8018 41.6299 33.7552 41.6508 33.7078C41.6553 33.6978 41.6597 33.6877 41.664 33.6776C41.6673 33.6699 41.6706 33.6621 41.6739 33.6544C41.7023 33.5866 41.7287 33.5172 41.7529 33.4463C41.7749 33.3819 41.7949 33.3171 41.8128 33.2518C41.8229 33.2149 41.8324 33.1778 41.8412 33.1406C41.8575 33.0719 41.8716 33.0027 41.8834 32.9331C41.8843 32.928 41.8851 32.9229 41.886 32.9178C41.8873 32.91 41.8885 32.9023 41.8897 32.8945C41.8919 32.881 41.8939 32.8675 41.8959 32.8539C41.8991 32.8321 41.902 32.8101 41.9048 32.7881C41.906 32.7782 41.9072 32.7683 41.9083 32.7583C41.9223 32.6378 41.9297 32.5159 41.9306 32.3926C41.9306 32.3841 41.9307 32.3757 41.9307 32.3672C41.9307 32.3247 41.9299 32.2824 41.9284 32.2402C41.926 32.1721 41.9216 32.1044 41.9153 32.0371C41.9121 32.0032 41.9084 31.9695 41.9042 31.9359C41.899 31.8942 41.893 31.8528 41.8863 31.8115C41.8799 31.772 41.8728 31.7327 41.865 31.6936C41.842 31.5783 41.8129 31.4643 41.7778 31.3518C41.7738 31.339 41.7698 31.3262 41.7656 31.3135C41.765 31.3112 41.7643 31.3089 41.7636 31.3067C41.7542 31.2748 41.7444 31.2434 41.7342 31.2122ZM30.9746 33.7637C30.9506 33.7776 30.9265 33.7915 30.9021 33.8053C30.8154 33.8545 30.726 33.9033 30.6339 33.9516C30.5884 33.9755 30.5422 33.9994 30.4953 34.0231C30.3718 34.0855 30.2439 34.1471 30.1113 34.208C30.0401 34.2407 29.9685 34.2726 29.8964 34.3035C29.833 34.3308 29.7692 34.3573 29.7051 34.3832C29.6857 34.3911 29.6663 34.3988 29.6469 34.4065C29.4823 34.4718 29.3155 34.5325 29.1465 34.5889C29.1435 34.5899 29.1404 34.5909 29.1374 34.5919C29.1104 34.6009 29.0833 34.6097 29.0562 34.6184C29.0524 34.6196 29.0487 34.6208 29.0449 34.622C29.0211 34.6296 28.9973 34.6371 28.9735 34.6445C28.9656 34.6469 28.9576 34.6494 28.9496 34.6518C28.9386 34.6552 28.9276 34.6586 28.9165 34.6619C28.8815 34.6725 28.8464 34.6828 28.8113 34.6929C28.5906 34.7564 28.368 34.8106 28.1436 34.8555C28.0894 34.8663 28.0356 34.8763 27.9821 34.8854C27.8954 34.9001 27.8096 34.9126 27.7246 34.9228C27.7034 34.9253 27.6823 34.9277 27.6612 34.93C27.6528 34.9309 27.6444 34.9317 27.6361 34.9326C27.6357 34.9326 27.6354 34.9327 27.6351 34.9327C27.6107 34.9352 27.5865 34.9375 27.5623 34.9396C27.428 34.9512 27.2959 34.957 27.166 34.957C27.0856 34.957 27.0064 34.9551 26.9285 34.9513C26.8888 34.9494 26.8495 34.9469 26.8105 34.944C26.6164 34.9294 26.4306 34.9025 26.2529 34.8634C26.1749 34.8462 26.0984 34.8266 26.0234 34.8047C25.9539 34.7843 25.8861 34.7618 25.8203 34.737C25.7639 34.7157 25.7089 34.6929 25.6553 34.6684C25.5208 34.607 25.3949 34.5355 25.2777 34.4537C25.224 34.4163 25.1721 34.3767 25.1221 34.335C25.0444 34.2702 24.9718 34.2003 24.9044 34.1253C24.7978 34.0065 24.704 33.8749 24.6232 33.7303C24.612 33.7103 24.6011 33.6901 24.5904 33.6697C24.5676 33.626 24.546 33.5811 24.5254 33.5352C24.4817 33.4314 24.4451 33.3215 24.4155 33.2055C24.4049 33.1638 24.3952 33.1214 24.3864 33.0781C24.3436 32.8683 24.3223 32.6398 24.3223 32.3926C24.3223 32.3841 24.3223 32.3756 24.3223 32.3672C24.3225 32.3245 24.3232 32.2822 24.3244 32.2402C24.3388 31.7319 24.4257 31.2744 24.5853 30.8676C24.5867 30.864 24.5881 30.8603 24.5896 30.8567C24.6241 30.7696 24.6619 30.6849 24.7031 30.6025C24.8753 30.2692 25.084 29.9724 25.3291 29.712C25.361 29.6781 25.3935 29.6449 25.4267 29.6122C25.4402 29.5989 25.4538 29.5856 25.4676 29.5725C25.5039 29.5378 25.541 29.5037 25.5788 29.4704C25.5994 29.4523 25.6203 29.4343 25.6413 29.4166C25.6466 29.4122 25.6518 29.4078 25.6571 29.4034C25.6857 29.3795 25.7147 29.3561 25.7441 29.333C25.7509 29.3278 25.7576 29.3227 25.7644 29.3175C25.7829 29.3035 25.8016 29.2895 25.8203 29.2758C25.9614 29.1722 26.1087 29.0776 26.2624 28.9917C26.2674 28.9889 26.2724 28.9861 26.2774 28.9834C26.3336 28.9522 26.3908 28.9222 26.4487 28.8934C26.4558 28.8899 26.4629 28.8864 26.4699 28.883C26.6121 28.8133 26.7593 28.7507 26.9115 28.6951C26.9912 28.666 27.0722 28.6388 27.1547 28.6135C27.1585 28.6124 27.1622 28.6112 27.166 28.6101C27.1955 28.6011 27.2251 28.5924 27.2549 28.584C27.3016 28.57 27.3486 28.5566 27.3958 28.5438C27.4293 28.5347 27.463 28.5259 27.4967 28.5174C27.5722 28.4983 27.6481 28.4807 27.7246 28.4646C27.7653 28.456 27.8062 28.4478 27.8472 28.44C27.8581 28.4379 27.869 28.4359 27.8799 28.4339C27.8828 28.4334 27.8856 28.4328 27.8885 28.4323C28.1345 28.3874 28.3856 28.3573 28.642 28.342C28.646 28.3418 28.65 28.3415 28.654 28.3413C28.6755 28.3401 28.6969 28.3389 28.7184 28.3379C28.8023 28.3338 28.8867 28.3314 28.9717 28.3305C28.996 28.3302 29.0205 28.3301 29.0449 28.3301C29.0893 28.3301 29.1337 28.3305 29.1781 28.3313C29.1818 28.3314 29.1855 28.3315 29.1893 28.3315C29.3866 28.3355 29.5839 28.3478 29.7812 28.3682C29.875 28.3779 29.9687 28.3906 30.0624 28.4065C30.1518 28.4216 30.2412 28.4396 30.3306 28.4603C30.393 28.4748 30.4553 28.4906 30.5176 28.5078L30.3214 28.4818C30.2888 28.5573 30.2574 28.6327 30.2272 28.708L30.6266 28.8513L30.6472 28.0378L30.5176 28.5078L31.2285 23.1504C31.0814 23.0792 30.9307 23.0144 30.7762 22.9558C30.639 22.9038 30.4988 22.8567 30.3557 22.8147C30.1071 22.7416 29.8497 22.6836 29.5836 22.6406C29.5607 22.6369 29.5377 22.6334 29.5146 22.6299C29.4819 22.6249 29.4491 22.62 29.4164 22.6153C29.292 22.5972 29.1682 22.5812 29.0449 22.5671C29.0414 22.5667 29.0379 22.5663 29.0344 22.5659C29.0218 22.5644 29.0092 22.563 28.9966 22.5616C28.5665 22.5141 28.1429 22.4903 27.7258 22.4902C27.7254 22.4902 27.725 22.4902 27.7246 22.4902C27.5358 22.4902 27.3496 22.4944 27.166 22.5027C26.9837 22.5109 26.8039 22.5233 26.6268 22.5397C26.3115 22.569 26.0045 22.6113 25.7058 22.6665C25.6648 22.674 25.624 22.6819 25.5834 22.6899C25.5557 22.6954 25.5281 22.701 25.5005 22.7067C25.402 22.7272 25.3044 22.7491 25.2077 22.7724C25.1022 22.7979 24.9979 22.8251 24.8946 22.854C24.8656 22.8621 24.8366 22.8704 24.8078 22.8788C24.7907 22.8837 24.7737 22.8887 24.7567 22.8938C24.7301 22.9017 24.7036 22.9098 24.6771 22.9179C24.5179 22.967 24.3613 23.0203 24.2075 23.0778C24.0959 23.1195 23.9857 23.1635 23.8769 23.2097C23.8334 23.2281 23.7902 23.2469 23.7472 23.2661C23.7017 23.2864 23.6564 23.307 23.6113 23.3281C23.5861 23.34 23.5611 23.352 23.536 23.364C23.5333 23.3654 23.5305 23.3667 23.5277 23.368C23.488 23.3872 23.4484 23.4067 23.4091 23.4264C23.057 23.6025 22.7225 23.7973 22.4053 24.0106C22.2388 24.1226 22.0772 24.2398 21.9203 24.362C21.9048 24.3741 21.8893 24.3863 21.8739 24.3985C21.5099 24.6862 21.1722 25.0019 20.8606 25.3456C20.8273 25.3824 20.7942 25.4195 20.7615 25.4569C20.7164 25.5084 20.6719 25.5605 20.6279 25.6133C20.2541 26.0619 19.9223 26.5452 19.6327 27.0634C19.6181 27.0895 19.6036 27.1157 19.5892 27.142C19.5833 27.1527 19.5775 27.1634 19.5717 27.1742C19.5682 27.1806 19.5647 27.1869 19.5613 27.1933C19.4562 27.3881 19.3569 27.5877 19.2635 27.7921C19.2522 27.8166 19.2411 27.8413 19.23 27.866C19.0688 28.226 18.9254 28.6007 18.7998 28.9902C18.4537 30.0569 18.252 31.1826 18.1947 32.3672C18.1943 32.3757 18.1939 32.3841 18.1935 32.3926C18.1892 32.4864 18.1857 32.5805 18.1832 32.675C18.1795 32.8087 18.1777 32.943 18.1777 33.0781C18.1777 34.1124 18.3524 35.0821 18.7018 35.9872C18.7186 36.0307 18.7358 36.0741 18.7534 36.1174C18.7562 36.1241 18.7589 36.1309 18.7617 36.1377C19.0058 36.7141 19.304 37.2443 19.6564 37.7283C19.666 37.7415 19.6757 37.7547 19.6854 37.7679C19.7154 37.8086 19.7459 37.849 19.7767 37.8891C19.8552 37.991 19.9362 38.0909 20.0197 38.1886C20.1371 38.3259 20.2594 38.459 20.3867 38.5879C20.4932 38.6957 20.6026 38.7999 20.715 38.9005C20.83 39.0035 20.9481 39.1028 21.0693 39.1983C21.5923 39.6104 22.1731 39.9528 22.8115 40.2256C23.2899 40.43 23.7872 40.5818 24.3035 40.6812C24.4786 40.7149 24.656 40.7426 24.8355 40.7642C24.9174 40.7741 24.9997 40.7827 25.0825 40.79C25.3246 40.8115 25.5705 40.8223 25.8203 40.8223C26.076 40.8223 26.3396 40.8103 26.6112 40.7864C26.7352 40.7754 26.8609 40.762 26.9883 40.7461C27.0413 40.7395 27.0943 40.7325 27.1473 40.7251C27.1535 40.7243 27.1598 40.7234 27.166 40.7225C27.3266 40.7 27.4871 40.6742 27.6477 40.6451C27.8341 40.6113 28.0206 40.573 28.207 40.5303C28.2149 40.5283 28.2227 40.5264 28.2305 40.5244C28.3317 40.4989 28.4322 40.4727 28.5319 40.4456C28.5546 40.4395 28.5773 40.4332 28.6 40.427C28.7393 40.3885 28.877 40.3486 29.0132 40.307C29.0238 40.3038 29.0343 40.3005 29.0449 40.2973C29.1039 40.2792 29.1625 40.2607 29.2209 40.242C29.2767 40.2241 29.3324 40.206 29.3877 40.1875C29.7311 40.068 30.0515 39.9354 30.3489 39.7896C30.3735 39.7775 30.3979 39.7654 30.4222 39.7531C30.4372 39.7456 30.452 39.7381 30.4668 39.7305L30.9746 33.7637ZM29.8734 58.5183C29.6566 58.5502 29.4391 58.5798 29.2209 58.6071C28.146 58.7415 27.0083 58.8223 25.8203 58.8223C22.4667 58.8223 19.0416 58.189 15.7391 56.778C12.7448 55.4986 9.96861 53.6546 7.58095 51.2375C5.22082 48.8482 3.43149 46.0967 2.18637 43.1561L2.14838 43.0664L2.11136 42.9762C0.773691 39.7193 0.177734 36.3603 0.177734 33.0781C0.177734 29.8952 0.636843 26.6513 1.67334 23.4509C2.74099 20.1457 4.41539 16.9514 6.79995 14.09C9.35606 11.0226 12.4825 8.67465 15.9358 7.04667L15.9581 7.03616L15.9804 7.0257C19.9457 5.1696 23.9974 4.49024 27.7246 4.49024C29.2609 4.49024 30.7609 4.61234 32.2147 4.83354C33.1514 4.9754 34.096 5.17351 35.041 5.43397L44.7177 4.96949L51.8423 0.832611L51.518 4.64307L66.1894 3.93885L66.5818 4.75543L67.7812 4.71477L67.7817 4.69336H68.4128L69.6523 4.65135L84.496 3.93885L84.595 4.14481L84.7376 4.13998L84.7231 4.41153L84.8586 4.69336H86.7194L103.044 4.13998L103.016 4.66288C104.108 4.54408 105.183 4.49024 106.232 4.49024C107.405 4.49024 108.556 4.56135 109.682 4.69336H116.277L116.267 4.85978L123.084 4.84728L123.088 4.82032H123.482L130.35 0.832611L130.14 3.30414L140.918 4.2641L151.229 3.34941L151.406 4.82032H151.601L151.607 4.61719H167.069L176.812 4.12652L176.954 4.61719H207.396L207.388 4.69336H223.426L223.417 4.83593L236.534 4.81186L235.573 45.5345L230.861 45.7243L229.911 57.5708L220.296 58.072L220.284 58.3516L210.642 58.5753L189.831 59.6602L189.832 59.0581L173.715 59.4321L173.729 58.8163L172.258 58.9316L171.979 60.192L164.958 59.5038L162.061 59.7309L162.069 59.2205L160.567 59.0732L148.795 60.5922L148.374 59.0059L127.308 59.4509L127.215 58.9054L117.08 59.2623L116.957 58.5511L95.6826 59.6602L95.6845 58.7565L69.0353 59.3748L64.5612 59.7846L64.1803 58.7969H57.0377L46.2546 59.7846L45.8737 58.7969H29.8663L29.8734 58.5183ZM67.0928 22.7949L66.6357 40.7969H72.3486L72.9072 31.4023L76.4619 40.6191L83.1143 40.0098L84.0283 22.7949L78.0361 22.9981L77.833 31.6309L73.4404 22.4902L67.0928 22.7949ZM85.3867 22.6934L84.9805 41L95.9238 40.7461C95.9246 40.7285 95.9254 40.7109 95.9263 40.6934C95.9263 40.6923 95.9264 40.6912 95.9264 40.6901C95.9269 40.6793 95.9274 40.6685 95.9279 40.6578C95.9592 39.9791 95.9929 39.3028 96.0288 38.6287C96.0401 38.416 96.0517 38.2035 96.0635 37.9912C96.0929 37.5336 96.1212 37.0749 96.1485 36.6152C96.1486 36.6142 96.1486 36.6132 96.1487 36.6123C96.149 36.6074 96.1493 36.6026 96.1496 36.5977C96.1529 36.5416 96.1562 36.4855 96.1595 36.4294C96.1761 36.146 96.1924 35.8623 96.2083 35.5782C96.2151 35.4559 96.2218 35.3334 96.2285 35.2109H90.8457L90.9727 33.3574L94.7812 33.2305L95.0605 29.2949H91.2773L91.4043 27.6953L96.7871 27.416C96.7878 27.4079 96.7885 27.3998 96.7892 27.3917C96.7921 27.3575 96.795 27.3233 96.7978 27.2891C96.809 27.1557 96.8197 27.0225 96.8302 26.8895C96.8785 26.2728 96.9192 25.6612 96.9521 25.0547C96.9738 24.6556 96.9966 24.2542 97.0206 23.8506C97.0278 23.7293 97.035 23.6077 97.0424 23.4859C97.0532 23.3086 97.0642 23.1309 97.0754 22.9528C97.0808 22.8664 97.0863 22.7799 97.0918 22.6934H85.3867ZM102.255 23.2661C102.209 23.2864 102.164 23.307 102.119 23.3281C102.094 23.34 102.069 23.352 102.044 23.364C102.037 23.3674 102.03 23.3708 102.023 23.3741C101.802 23.4811 101.589 23.5951 101.382 23.7163C101.222 23.8102 101.065 23.9082 100.913 24.0106C100.747 24.1226 100.585 24.2398 100.428 24.362C100.413 24.3741 100.397 24.3863 100.382 24.3985C100.072 24.6433 99.7813 24.9084 99.5096 25.1937C99.3807 25.329 99.2561 25.4689 99.1357 25.6133C98.7619 26.0619 98.4302 26.5452 98.1405 27.0634C98.0586 27.2099 97.9801 27.3591 97.9049 27.5112C97.8591 27.6038 97.8146 27.6974 97.7713 27.7921C97.76 27.8166 97.7489 27.8413 97.7378 27.866C97.6905 27.9717 97.6446 28.0788 97.6003 28.1871C97.5521 28.305 97.5057 28.4244 97.4611 28.5454C97.4513 28.5721 97.4415 28.5989 97.4319 28.6257C97.3887 28.7458 97.3473 28.8673 97.3076 28.9902C97.2589 29.1405 97.213 29.292 97.1699 29.4446C97.1427 29.541 97.1167 29.6379 97.0918 29.7352C97.09 29.7422 97.0883 29.7491 97.0865 29.756C97.0329 29.9672 96.9846 30.1807 96.9417 30.3963C96.8134 31.0421 96.7332 31.7075 96.7013 32.3926C96.697 32.4864 96.6935 32.5805 96.691 32.675C96.6874 32.8087 96.6855 32.943 96.6855 33.0781C96.6855 33.1746 96.6871 33.2706 96.6901 33.3659C96.6942 33.4951 96.7011 33.6233 96.7108 33.7505C96.7503 34.2678 96.836 34.7681 96.9679 35.2513C97.0034 35.3815 97.0424 35.5105 97.0846 35.6383C97.087 35.6455 97.0894 35.6527 97.0918 35.6599C97.1286 35.7699 97.1678 35.879 97.2096 35.9872C97.218 36.0091 97.2266 36.0309 97.2352 36.0528C97.2438 36.0743 97.2525 36.0959 97.2612 36.1174C97.264 36.1241 97.2667 36.1309 97.2695 36.1377C97.5821 36.876 97.9836 37.5384 98.4739 38.1251C98.48 38.1325 98.4862 38.1399 98.4924 38.1472C98.6204 38.2992 98.7545 38.4461 98.8945 38.5879C99.001 38.6957 99.1104 38.7999 99.2228 38.9005C99.3378 39.0035 99.4559 39.1028 99.5771 39.1983C100.049 39.5698 100.567 39.8847 101.133 40.143C101.194 40.1712 101.257 40.1987 101.319 40.2256C101.783 40.4239 102.265 40.5728 102.765 40.6722C102.781 40.6752 102.796 40.6783 102.811 40.6812C102.871 40.6927 102.931 40.7035 102.991 40.7136C103.424 40.786 103.869 40.8223 104.328 40.8223C104.701 40.8223 105.09 40.7969 105.496 40.7461C105.549 40.7395 105.602 40.7325 105.655 40.7251C105.661 40.7243 105.668 40.7234 105.674 40.7225C105.769 40.7092 105.865 40.6946 105.96 40.6789C106.212 40.6375 106.463 40.588 106.715 40.5303C106.824 40.503 106.932 40.4748 107.04 40.4456C107.062 40.4395 107.085 40.4332 107.108 40.427C107.258 40.3856 107.406 40.3423 107.553 40.2973C107.612 40.2792 107.67 40.2607 107.729 40.242C107.785 40.2241 107.84 40.206 107.896 40.1875C108.267 40.0582 108.612 39.9134 108.93 39.7531C108.945 39.7456 108.96 39.7381 108.975 39.7305L109.482 33.7637C109.458 33.7776 109.434 33.7915 109.41 33.8053C109.323 33.8545 109.234 33.9033 109.142 33.9516C108.976 34.0385 108.802 34.124 108.619 34.208C108.616 34.2093 108.613 34.2106 108.611 34.2119C108.48 34.272 108.347 34.3291 108.213 34.3832C108.194 34.3911 108.174 34.3988 108.155 34.4065C108.06 34.4441 107.965 34.4801 107.868 34.5147C107.797 34.5402 107.726 34.5649 107.654 34.5889C107.651 34.5899 107.648 34.5909 107.645 34.5919C107.618 34.6009 107.591 34.6097 107.564 34.6184C107.56 34.6196 107.556 34.6208 107.553 34.622C107.529 34.6296 107.505 34.6371 107.481 34.6445C107.473 34.6469 107.465 34.6494 107.457 34.6518C107.446 34.6552 107.435 34.6586 107.424 34.6619C107.389 34.6725 107.354 34.6828 107.319 34.6929C107.098 34.7564 106.876 34.8106 106.651 34.8555C106.597 34.8663 106.543 34.8763 106.49 34.8854C106.403 34.9001 106.317 34.9126 106.232 34.9228C106.211 34.9253 106.19 34.9277 106.169 34.93C106.161 34.9309 106.152 34.9317 106.144 34.9326C106.144 34.9326 106.143 34.9327 106.143 34.9327C106.119 34.9352 106.094 34.9375 106.07 34.9396C105.936 34.9512 105.804 34.957 105.674 34.957C105.593 34.957 105.514 34.9551 105.436 34.9513C105.397 34.9494 105.357 34.9469 105.318 34.944C105.124 34.9294 104.938 34.9025 104.761 34.8634C104.683 34.8462 104.606 34.8266 104.531 34.8047C104.462 34.7843 104.394 34.7618 104.328 34.737C104.272 34.7157 104.217 34.6929 104.163 34.6684C104.029 34.607 103.903 34.5355 103.785 34.4537C103.732 34.4163 103.68 34.3767 103.63 34.335C103.584 34.2969 103.54 34.257 103.498 34.2153C103.469 34.1862 103.44 34.1562 103.412 34.1253C103.33 34.0336 103.255 33.9342 103.188 33.8271C103.174 33.8038 103.16 33.7801 103.146 33.7561C103.141 33.7475 103.136 33.7389 103.131 33.7303C103.12 33.7103 103.109 33.6901 103.098 33.6697C103.075 33.626 103.054 33.5811 103.033 33.5352C102.99 33.4314 102.953 33.3215 102.923 33.2055C102.913 33.1638 102.903 33.1214 102.894 33.0781C102.851 32.8683 102.83 32.6398 102.83 32.3926C102.83 31.8229 102.918 31.3146 103.093 30.8676C103.095 30.864 103.096 30.8603 103.097 30.8567C103.132 30.7696 103.17 30.6849 103.211 30.6025C103.213 30.5994 103.214 30.5962 103.216 30.5931C103.276 30.4769 103.341 30.3652 103.41 30.2579C103.49 30.1346 103.575 30.0172 103.667 29.9057C103.721 29.839 103.778 29.7745 103.837 29.712C103.869 29.6781 103.901 29.6449 103.934 29.6122C103.948 29.5989 103.962 29.5856 103.975 29.5725C104.012 29.5378 104.049 29.5038 104.087 29.4705C104.107 29.4523 104.128 29.4343 104.149 29.4166C104.154 29.4122 104.16 29.4078 104.165 29.4034C104.194 29.3795 104.223 29.3561 104.252 29.333C104.259 29.3278 104.265 29.3227 104.272 29.3175C104.291 29.3035 104.309 29.2895 104.328 29.2758C104.469 29.1722 104.617 29.0776 104.77 28.9917C104.775 28.9889 104.78 28.9861 104.785 28.9834C104.913 28.9124 105.046 28.8476 105.183 28.7888C105.218 28.7736 105.254 28.7588 105.29 28.7444C105.333 28.7274 105.376 28.7109 105.419 28.6951C105.469 28.6769 105.519 28.6595 105.57 28.6429C105.601 28.6328 105.631 28.623 105.663 28.6135C105.666 28.6124 105.67 28.6112 105.674 28.6101C105.703 28.6011 105.733 28.5924 105.763 28.584C105.843 28.5601 105.923 28.5379 106.005 28.5174C106.08 28.4983 106.156 28.4807 106.232 28.4646C106.273 28.456 106.314 28.4478 106.355 28.44C106.366 28.4379 106.377 28.4359 106.388 28.4339C106.391 28.4334 106.393 28.4328 106.396 28.4323C106.642 28.3874 106.893 28.3573 107.15 28.342C107.154 28.3418 107.158 28.3415 107.162 28.3413C107.183 28.3401 107.205 28.3389 107.226 28.3379C107.326 28.3331 107.427 28.3305 107.528 28.3301C107.536 28.3301 107.544 28.3301 107.553 28.3301C107.601 28.3301 107.649 28.3306 107.697 28.3315C107.894 28.3355 108.092 28.3478 108.289 28.3682C108.383 28.3779 108.477 28.3906 108.57 28.4065C108.612 28.4136 108.653 28.4212 108.695 28.4295C108.805 28.4513 108.915 28.4774 109.025 28.5078L109.736 23.1504C109.71 23.1375 109.683 23.1248 109.656 23.1124C109.43 23.0074 109.195 22.9171 108.952 22.8415C108.923 22.8323 108.893 22.8234 108.864 22.8147C108.615 22.7416 108.358 22.6836 108.091 22.6406C108.069 22.6369 108.046 22.6334 108.022 22.6299C107.865 22.6058 107.708 22.5849 107.553 22.5671C107.106 22.5158 106.666 22.4902 106.232 22.4902C106.14 22.4902 106.049 22.4912 105.958 22.4932C105.863 22.4953 105.768 22.4984 105.674 22.5027C105.491 22.5109 105.312 22.5233 105.135 22.5397C104.819 22.569 104.512 22.6113 104.214 22.6665C104.173 22.674 104.132 22.6819 104.091 22.6899C104.064 22.6954 104.036 22.701 104.008 22.7067C103.995 22.7094 103.983 22.7121 103.97 22.7148C103.884 22.7329 103.8 22.7521 103.715 22.7724C103.61 22.7979 103.506 22.8251 103.402 22.854C103.373 22.8621 103.344 22.8704 103.316 22.8788C103.299 22.8837 103.282 22.8887 103.265 22.8938C103.238 22.9017 103.211 22.9098 103.185 22.9179C103.046 22.9608 102.909 23.0068 102.774 23.0561C102.755 23.0632 102.735 23.0705 102.715 23.0778C102.715 23.0778 102.715 23.0778 102.715 23.0778C102.61 23.1173 102.505 23.1588 102.402 23.2022C102.396 23.2047 102.391 23.2072 102.385 23.2097C102.341 23.2281 102.298 23.2469 102.255 23.2661ZM110.117 22.8711L109.965 28.8633L113.748 28.6602L113.723 40.6953L119.08 40.416L120.045 28.3809L123.828 28.2285L123.955 22.8457L110.117 22.8711ZM139.354 40.4668L140.903 32.0117L142.452 41.127L149.663 40.9746L152.634 23.3789L146.362 22.8203L145.347 33.4844L143.366 22.8203H138.415L136.714 33.3574L135.444 22.8203L129.147 23.3789L132.144 40.7207L139.354 40.4668ZM151.377 40.0859L157.852 40.7207L158.486 37.8516H161.381L162.143 40.7207L168.439 39.9082L163.488 22.8203L156.43 23.1758L151.377 40.0859ZM159.02 33.9668H160.924L159.959 29.5488L159.02 33.9668ZM168.664 38.9893C168.659 39.2752 168.654 39.5612 168.649 39.8474C168.648 39.9103 168.647 39.9733 168.646 40.0362C168.646 40.0572 168.645 40.0781 168.645 40.0991C168.644 40.1455 168.643 40.1919 168.643 40.2383L179.332 39.4004L179.865 33.7637C179.677 33.7637 179.49 33.7643 179.304 33.7657C179.176 33.7666 179.048 33.7679 178.921 33.7694C178.911 33.7695 178.901 33.7697 178.891 33.7698C178.749 33.7716 178.609 33.7738 178.469 33.7764C178.137 33.7825 177.801 33.7864 177.46 33.7881C177.331 33.7887 177.202 33.7891 177.072 33.7891H175.892C175.811 33.7891 175.731 33.7887 175.65 33.788C175.378 33.7856 175.103 33.779 174.826 33.7683C174.788 33.7669 174.749 33.7653 174.711 33.7637C174.717 33.6257 174.722 33.4879 174.729 33.3501C174.729 33.3294 174.73 33.3087 174.731 33.2879C174.731 33.2846 174.732 33.2814 174.732 33.2781C174.741 33.0839 174.75 32.8899 174.76 32.6961C174.769 32.5211 174.778 32.3461 174.788 32.1713C174.799 31.9698 174.811 31.7684 174.824 31.5672C174.824 31.5614 174.824 31.5556 174.825 31.5498C174.83 31.4704 174.835 31.391 174.84 31.3116C174.84 31.3061 174.841 31.3006 174.841 31.295C174.849 31.1706 174.857 31.0463 174.866 30.922C174.929 30.0031 175.004 29.0884 175.092 28.1777C175.128 27.8054 175.164 27.4331 175.2 27.0608C175.2 27.0591 175.2 27.0574 175.2 27.0558C175.228 26.7711 175.256 26.4865 175.284 26.2019C175.301 26.0394 175.317 25.8769 175.333 25.7144C175.429 24.7511 175.528 23.7878 175.629 22.8246C175.636 22.7554 175.643 22.6863 175.65 22.6172H169.049C169.016 23.6575 168.985 24.6958 168.955 25.7319C168.951 25.8655 168.948 25.999 168.944 26.1325C168.941 26.2182 168.939 26.3038 168.937 26.3893C168.936 26.4103 168.935 26.4312 168.935 26.4522C168.935 26.4548 168.935 26.4574 168.935 26.46C168.93 26.6096 168.926 26.7591 168.922 26.9085C168.916 27.133 168.91 27.3574 168.904 27.5817C168.904 27.5826 168.904 27.5835 168.904 27.5844C168.904 27.5881 168.904 27.5917 168.904 27.5954C168.872 28.7848 168.842 29.9714 168.814 31.1553C168.814 31.1666 168.813 31.178 168.813 31.1893C168.811 31.2688 168.809 31.3483 168.808 31.4277C168.808 31.4286 168.808 31.4295 168.808 31.4304C168.802 31.703 168.797 31.9758 168.791 32.2487C168.788 32.4041 168.785 32.5597 168.782 32.7152C168.78 32.8256 168.777 32.936 168.775 33.0465C168.772 33.2051 168.769 33.3639 168.766 33.5227C168.75 34.3149 168.735 35.1083 168.72 35.903C168.72 35.9451 168.719 35.9871 168.718 36.0291C168.717 36.1062 168.715 36.1834 168.714 36.2605C168.701 36.9701 168.688 37.6807 168.675 38.3923C168.671 38.5912 168.668 38.7902 168.664 38.9893ZM218.104 22.8457L204.266 22.8711L204.113 28.8633L207.896 28.6602L207.871 40.6953L213.229 40.416L214.193 28.3809L217.977 28.2285L218.104 22.8457ZM203.936 27.416C203.957 27.1665 203.977 26.9178 203.996 26.6699C204.037 26.1275 204.072 25.5891 204.101 25.0547C204.113 24.8287 204.126 24.6019 204.139 24.3745C204.165 23.9036 204.194 23.4297 204.224 22.9528C204.226 22.9252 204.227 22.8977 204.229 22.8702C204.233 22.8113 204.236 22.7523 204.24 22.6934H192.535L192.529 22.9859L192.402 28.7103L192.402 28.7127L192.129 41L203.072 40.7461C203.073 40.7285 203.074 40.7109 203.075 40.6934C203.075 40.6906 203.075 40.6879 203.075 40.6852C203.077 40.6351 203.08 40.585 203.082 40.535C203.096 40.2249 203.111 39.9153 203.127 39.6062C203.154 39.0664 203.182 38.5281 203.212 37.9912C203.263 37.1901 203.312 36.3858 203.357 35.5782C203.364 35.4559 203.37 35.3334 203.377 35.2109H197.994L198.121 33.3574L201.93 33.2305L202.209 29.2949H198.426L198.426 29.2931L198.553 27.6953L203.936 27.416ZM180.805 22.6172C180.802 22.7058 180.799 22.7944 180.796 22.883C180.795 22.9178 180.794 22.9526 180.793 22.9874C180.791 23.0438 180.79 23.1003 180.788 23.1567C180.773 23.6233 180.759 24.0894 180.745 24.5552C180.728 25.1301 180.712 25.7044 180.696 26.2781C180.683 26.713 180.671 27.1475 180.66 27.5817C180.66 27.5826 180.66 27.5835 180.66 27.5844C180.657 27.6844 180.654 27.7843 180.652 27.8843C180.644 28.1593 180.637 28.4341 180.63 28.7088C180.63 28.7096 180.63 28.7104 180.63 28.7112C180.607 29.6184 180.584 30.5239 180.563 31.4277C180.562 31.5072 180.56 31.5867 180.559 31.6662C180.558 31.6775 180.558 31.6889 180.558 31.7002C180.555 31.8514 180.552 32.0026 180.549 32.1538C180.545 32.3409 180.541 32.528 180.538 32.7152C180.532 32.9842 180.527 33.2534 180.522 33.5227C180.52 33.6235 180.518 33.7243 180.516 33.8252C180.515 33.8831 180.514 33.941 180.512 33.9989C180.512 34.0038 180.512 34.0087 180.512 34.0135C180.497 34.8156 180.481 35.6188 180.467 36.4234C180.454 37.0788 180.442 37.7351 180.431 38.3923C180.428 38.5563 180.425 38.7203 180.422 38.8843C180.418 39.0903 180.415 39.2964 180.411 39.5025C180.407 39.7476 180.403 39.9929 180.398 40.2383L191.088 39.4004L191.621 33.7637C191.292 33.7637 190.967 33.7657 190.647 33.7698C190.505 33.7716 190.364 33.7738 190.225 33.7764C190.112 33.7785 189.999 33.7803 189.886 33.7819C189.538 33.7867 189.185 33.7891 188.828 33.7891H187.647C187.567 33.7891 187.487 33.7887 187.406 33.788C187.194 33.7861 186.98 33.7817 186.764 33.7748C186.704 33.7728 186.643 33.7707 186.582 33.7683C186.544 33.7669 186.505 33.7653 186.467 33.7637C186.472 33.6257 186.478 33.4879 186.484 33.3501C186.485 33.3261 186.487 33.3021 186.488 33.2781C186.498 33.0394 186.51 32.8011 186.523 32.563C186.53 32.4215 186.538 32.28 186.546 32.1387C186.551 32.0389 186.557 31.9392 186.563 31.8395C186.564 31.8223 186.565 31.8052 186.566 31.7881C186.57 31.7144 186.575 31.6408 186.579 31.5672C186.58 31.5614 186.58 31.5556 186.581 31.5498C186.627 30.7973 186.683 30.0474 186.746 29.3004C186.746 29.2987 186.746 29.297 186.746 29.2953C186.771 29.0044 186.797 28.7138 186.824 28.4237C186.826 28.4073 186.827 28.3909 186.829 28.3745C186.834 28.3179 186.84 28.2612 186.845 28.2046C186.846 28.1956 186.847 28.1867 186.848 28.1777C186.869 27.9533 186.891 27.7288 186.913 27.5043C186.936 27.2619 186.96 27.0195 186.984 26.7771C187.01 26.5114 187.036 26.2457 187.062 25.98C187.123 25.3663 187.185 24.7525 187.248 24.1388C187.259 24.0387 187.269 23.9386 187.279 23.8385C187.314 23.5005 187.349 23.1625 187.385 22.8246C187.392 22.7554 187.399 22.6863 187.406 22.6172H180.805ZM30.6251 28.9092L30.2056 28.7623C30.1789 28.83 30.1532 28.8976 30.1285 28.965C30.0719 29.1189 30.0201 29.272 29.9731 29.4239C29.9396 29.5318 29.9086 29.6392 29.8798 29.7457L30.5992 29.9277L30.6251 28.9092ZM30.5992 29.931L29.8784 29.7509C29.8645 29.8027 29.8511 29.8544 29.8382 29.9058L30.595 30.095L30.5992 29.931ZM30.5938 30.1439L29.8262 29.9542C29.714 30.4083 29.6426 30.8476 29.6039 31.2632L30.5764 30.8281L30.5938 30.1439ZM30.5723 30.9891L29.5921 31.4018C29.5881 31.4537 29.5846 31.5052 29.5816 31.5563L30.5685 31.1384L30.5723 30.9891ZM30.5647 31.2901L29.5745 31.6967C29.571 31.7826 29.5687 31.8673 29.5679 31.9506C29.5675 31.9796 29.5674 32.0084 29.5674 32.0371C29.5674 32.101 29.5683 32.1688 29.5705 32.2402C29.5718 32.2813 29.5734 32.3237 29.5755 32.3672C29.5759 32.3756 29.5763 32.3841 29.5767 32.3926C29.578 32.4166 29.5793 32.441 29.5808 32.4657C29.5813 32.4735 29.5818 32.4813 29.5823 32.4892C29.5937 32.6665 29.6123 32.8613 29.641 33.0715L30.5084 33.5052L30.5647 31.2901ZM30.506 33.6007L29.6535 33.1602C29.6572 33.1855 29.6611 33.2111 29.6651 33.2368C29.6861 33.3719 29.7112 33.5127 29.741 33.6587L30.5029 33.7235L30.506 33.6007Z" fill="#58C3FF"/>
</svg>
