<svg width="37" height="32" viewBox="0 0 37 32" fill="none" xmlns="http://www.w3.org/2000/svg">
<rect width="37" height="32" rx="1" fill="black"/>
<path d="M7.0986 7H16.4393C16.9347 7 17.4099 7.19667 17.7602 7.54673C18.1106 7.8968 18.3074 8.3716 18.3074 8.86667C18.3074 9.36174 18.1106 9.83653 17.7602 10.1866C17.4099 10.5367 16.9347 10.7333 16.4393 10.7333H7.0986C6.60314 10.7333 6.12797 10.5367 5.77763 10.1866C5.42729 9.83653 5.23047 9.36174 5.23047 8.86667C5.23047 8.3716 5.42729 7.8968 5.77763 7.54673C6.12797 7.19667 6.60314 7 7.0986 7ZM20.1755 21.9333H29.5162C30.0116 21.9333 30.4868 22.13 30.8372 22.4801C31.1875 22.8301 31.3843 23.3049 31.3843 23.8C31.3843 24.2951 31.1875 24.7699 30.8372 25.1199C30.4868 25.47 30.0116 25.6667 29.5162 25.6667H20.1755C19.6801 25.6667 19.2049 25.47 18.8546 25.1199C18.5042 24.7699 18.3074 24.2951 18.3074 23.8C18.3074 23.3049 18.5042 22.8301 18.8546 22.4801C19.2049 22.13 19.6801 21.9333 20.1755 21.9333ZM7.0986 14.4667H29.5162C30.0116 14.4667 30.4868 14.6633 30.8372 15.0134C31.1875 15.3635 31.3843 15.8383 31.3843 16.3333C31.3843 16.8284 31.1875 17.3032 30.8372 17.6533C30.4868 18.0033 30.0116 18.2 29.5162 18.2H7.0986C6.60314 18.2 6.12797 18.0033 5.77763 17.6533C5.42729 17.3032 5.23047 16.8284 5.23047 16.3333C5.23047 15.8383 5.42729 15.3635 5.77763 15.0134C6.12797 14.6633 6.60314 14.4667 7.0986 14.4667Z" fill="white"/>
</svg>
