<svg width="35" height="35" viewBox="0 0 35 35" fill="none" xmlns="http://www.w3.org/2000/svg">
<path d="M17.2362 9.17521C12.4481 9.17521 8.58593 13.0373 8.58593 17.8255C8.58593 22.6136 12.4481 26.4758 17.2362 26.4758C22.0244 26.4758 25.8865 22.6136 25.8865 17.8255C25.8865 13.0373 22.0244 9.17521 17.2362 9.17521ZM17.2362 23.4493C14.142 23.4493 11.6124 20.9272 11.6124 17.8255C11.6124 14.7237 14.1345 12.2017 17.2362 12.2017C20.338 12.2017 22.86 14.7237 22.86 17.8255C22.86 20.9272 20.3304 23.4493 17.2362 23.4493ZM28.258 8.82137C28.258 9.94312 27.3546 10.839 26.2403 10.839C25.1186 10.839 24.2227 9.93559 24.2227 8.82137C24.2227 7.70714 25.1261 6.80372 26.2403 6.80372C27.3546 6.80372 28.258 7.70714 28.258 8.82137ZM33.9872 10.8691C33.8592 8.16638 33.2419 5.77231 31.2619 3.79984C29.2894 1.82736 26.8953 1.21002 24.1926 1.07451C21.407 0.916408 13.0579 0.916408 10.2723 1.07451C7.57711 1.20249 5.18304 1.81983 3.20303 3.79231C1.22303 5.76478 0.613219 8.15885 0.477705 10.8616C0.319606 13.6472 0.319606 21.9963 0.477705 24.7819C0.60569 27.4846 1.22303 29.8787 3.20303 31.8511C5.18304 33.8236 7.56958 34.441 10.2723 34.5765C13.0579 34.7346 21.407 34.7346 24.1926 34.5765C26.8953 34.4485 29.2894 33.8311 31.2619 31.8511C33.2343 29.8787 33.8517 27.4846 33.9872 24.7819C34.1453 21.9963 34.1453 13.6547 33.9872 10.8691ZM30.3886 27.7707C29.8013 29.2463 28.6645 30.3831 27.1814 30.9778C24.9605 31.8587 19.6905 31.6554 17.2362 31.6554C14.7819 31.6554 9.50441 31.8511 7.29103 30.9778C5.81543 30.3906 4.67863 29.2538 4.08387 27.7707C3.20303 25.5498 3.4063 20.2798 3.4063 17.8255C3.4063 15.3712 3.21056 10.0937 4.08387 7.8803C4.6711 6.40471 5.8079 5.2679 7.29103 4.67314C9.51194 3.79231 14.7819 3.99558 17.2362 3.99558C19.6905 3.99558 24.968 3.79984 27.1814 4.67314C28.657 5.26037 29.7938 6.39718 30.3886 7.8803C31.2694 10.1012 31.0661 15.3712 31.0661 17.8255C31.0661 20.2798 31.2694 25.5573 30.3886 27.7707Z" fill="#00172C"/>
</svg>
