<svg width="93" height="88" viewBox="0 0 93 88" fill="none" xmlns="http://www.w3.org/2000/svg">
<g clip-path="url(#clip0_212_280)">
<path d="M90.7204 0.0952148L51.2441 29.5589L58.5851 12.1951L90.7204 0.0952148Z" fill="#E17726"/>
<path d="M3.07798 0.129883L35.1274 12.1971L42.0978 29.7885L3.07798 0.129883ZM74.834 62.7561L92.282 63.0911L86.1842 83.9863L64.8937 78.0736L74.834 62.7561ZM18.8718 62.7561L28.7751 78.0736L7.52058 83.9866L1.45972 63.0911L18.8718 62.7561Z" fill="#E27625"/>
<path d="M41.1501 25.308L41.8631 48.5381L20.5266 47.559L26.5957 38.3232L26.6726 38.2344L41.1501 25.308ZM52.3349 25.0488L67.0333 38.2351L67.1095 38.3236L73.1786 47.5594L51.8469 48.5381L52.3349 25.0488ZM29.3999 62.8239L41.0502 71.9803L27.5168 78.5709L29.3999 62.8239ZM64.3082 62.8224L66.1521 78.5712L52.6565 71.9795L64.3082 62.8224Z" fill="#E27625"/>
<path d="M52.9545 71.1167L66.6493 77.8055L53.9105 83.9122L54.0427 79.8762L52.9545 71.1167ZM40.7477 71.1196L39.7022 79.8102L39.7881 83.9075L27.0195 77.8055L40.7477 71.1196Z" fill="#D5BFB2"/>
<path d="M36.793 51.5698L40.3716 59.1562L28.1877 55.5559L36.793 51.5698ZM56.9126 51.5706L65.5584 55.5559L53.3347 59.1551L56.9126 51.5706Z" fill="#233447"/>
<path d="M30.3312 62.7463L28.3618 79.0733L17.8059 63.1034L30.3312 62.7463ZM63.3757 62.7467L75.9014 63.1034L65.3059 79.0741L63.3757 62.7467ZM73.4871 46.6357L64.3716 56.0067L57.3433 52.7671L53.9784 59.9025L51.7726 47.6323L73.4871 46.6357ZM20.2144 46.6357L41.9333 47.6323L39.7271 59.9025L36.3615 52.7682L29.3706 56.0071L20.2144 46.6357Z" fill="#CC6228"/>
<path d="M19.6001 44.7122L29.9134 55.2686L30.2707 65.6901L19.6001 44.7122ZM74.1162 44.6934L63.4262 65.7086L63.8287 55.2686L74.1162 44.6934ZM41.4289 45.3553L41.844 47.9907L42.8696 54.5559L42.2102 74.72L39.0926 58.5216L39.0915 58.3542L41.4289 45.3553ZM52.2716 45.3187L54.6151 58.3542L54.614 58.5216L51.4885 74.7606L51.3649 70.6987L50.8772 54.4363L52.2716 45.3187Z" fill="#E27525"/>
<path d="M64.7457 54.8496L64.3967 63.9041L53.517 72.4544L51.3176 70.887L53.7829 58.078L64.7457 54.8496ZM28.9983 54.8496L39.9229 58.078L42.3882 70.887L40.1889 72.4544L29.3088 63.9034L28.9983 54.8496Z" fill="#F5841F"/>
<path d="M24.9375 75.8062L38.8568 82.4588L38.7979 79.6178L39.9626 78.5865H53.7389L54.9457 79.6142L54.8565 82.453L68.6878 75.8228L61.9574 81.4329L53.8194 87.0708H39.8508L31.7182 81.4097L24.9375 75.8062Z" fill="#C0AC9D"/>
<path d="M51.9577 70.2314L53.9256 71.634L55.0789 80.9154L53.4099 79.494H40.3014L38.6641 80.944L39.7796 71.6347L41.7482 70.2314H51.9577Z" fill="#161616"/>
<path d="M88.1143 0.910645L92.853 15.2501L89.8936 29.749L92.0009 31.3886L89.1493 33.5831L91.2926 35.2528L88.4546 37.8595L90.1969 39.1323L85.5732 44.5792L66.609 39.0094L66.4447 38.9206L52.7788 27.2923L88.1143 0.910645ZM5.59175 0.910645L40.9277 27.2923L27.2613 38.9206L27.0971 39.0094L8.13289 44.5792L3.50917 39.1323L5.24998 37.8606L2.41379 35.2528L4.55279 33.5849L1.65839 31.3842L3.84518 29.7435L0.853027 15.2508L5.59175 0.910645Z" fill="#763E1A"/>
<path d="M65.6814 37.7914L85.7752 43.6926L92.3032 63.9875H75.0805L63.214 64.1383L71.844 47.1704L65.6814 37.7914ZM28.0247 37.7914L21.8611 47.1704L30.4922 64.1383L18.631 63.9875H1.43921L7.9306 43.6929L28.0247 37.7914ZM59.5692 12.0981L53.9489 27.4098L52.7562 48.094L52.2998 54.5773L52.2635 71.1392H41.4423L41.4071 54.6085L40.9493 48.0886L39.7561 27.4098L34.1366 12.0981H59.5692Z" fill="#F5841F"/>
</g>
<defs>
<clipPath id="clip0_212_280">
<rect width="92" height="87" fill="white" transform="translate(0.853027 0.0952148)"/>
</clipPath>
</defs>
</svg>
