<svg width="67" height="49" viewBox="0 0 67 49" fill="none" xmlns="http://www.w3.org/2000/svg">
<path fill-rule="evenodd" clip-rule="evenodd" d="M32.5292 10.9961L32.1776 24.8438H36.5722L37.0018 17.6172L39.7362 24.707L44.8534 24.2383L45.5565 10.9961L40.9472 11.1523L40.7909 17.793L37.412 10.7617L32.5292 10.9961ZM45.9179 15.6641L48.828 15.5078L48.8085 24.7656L52.9296 24.5508L53.6718 15.293L56.5819 15.1758L56.6796 11.0352L46.035 11.0547L45.9179 15.6641ZM32.9277 34.8438L33.1247 35.3545L38.7008 34.8438H38.7872L38.7862 35.3017L62.1976 34.0812L62.9314 24.9282L66.3579 24.7902L66.9187 1.01635L56.0995 1.03621L56.1209 0.632236L43.839 1.04857L43.554 0.455391L36.2391 0.806505L36.2419 0.76172H13.4919L13.3075 1.23761L0.811948 1.72382L0.328125 35.1559L10.1945 34.8569L10.1899 35.7436L12.7723 35.6303L16.6078 48.0769L21.5801 35.244L30.7054 34.8438H32.9277ZM30.5175 24.5508L31.5917 11.25L26.3964 11.5234V24.7656L30.5175 24.5508ZM25.5956 10.7617H20.3417L17.6854 17.6172L15.6933 11.1523L10.6737 11.3477L10.4784 24.8438L14.9901 24.707L15.0097 18.3789L16.5526 23.8281H18.2714L20.2831 17.7344L20.244 25.293L24.6972 25.0977L25.5956 10.7617Z" fill="#00172C"/>
</svg>
