<svg width="91" height="91" viewBox="0 0 91 91" fill="none" xmlns="http://www.w3.org/2000/svg">
<path d="M47.3498 0.967773L30.2347 18.0829V22.0584L51.3253 0.967773H47.3498ZM55.6884 1.71633L30.9832 26.4215L64.7748 60.2129L89.48 35.5081L55.6882 1.71673L55.6884 1.71633ZM90.2287 39.871L69.1376 60.9616H73.1132L90.2283 43.8465V39.871H90.2287ZM42.0579 42.6072L40.0701 44.595L46.6013 51.1264L48.5891 49.1386L42.0579 42.6072ZM37.5146 47.1505L32.7903 51.8746H42.2387L37.5146 47.1505ZM29.1761 55.4888L23.7035 60.9616H36.7659L42.2387 55.4888H29.1761ZM20.0892 64.5759L14.6168 70.0483H27.6792L33.1516 64.5759H20.0892ZM14.6168 73.6626L19.3408 78.3866L24.0649 73.6626H14.6168ZM10.2538 74.4111L8.26633 76.3988L14.7975 82.93L16.785 80.9425L10.2538 74.4111ZM2.46964 78.2059L0.962891 82.7262L8.47013 90.2334L12.9904 88.7267V86.234L4.96188 78.2059H2.46964Z" fill="white"/>
</svg>
