<svg width="25" height="25" viewBox="0 0 25 25" fill="none" xmlns="http://www.w3.org/2000/svg">
<g clip-path="url(#clip0_52_5)">
<path d="M12.6016 24.2741C19.229 24.2741 24.6016 18.9015 24.6016 12.2741C24.6016 5.64669 19.229 0.274109 12.6016 0.274109C5.97415 0.274109 0.601562 5.64669 0.601562 12.2741C0.601562 18.9015 5.97415 24.2741 12.6016 24.2741Z" fill="#070228"/>
<path d="M6.52204 12.6773L6.57388 12.5959L9.69532 7.71239C9.7057 7.69621 9.72025 7.68314 9.73744 7.67454C9.75463 7.66595 9.77382 7.66215 9.79299 7.66355C9.81215 7.66495 9.83059 7.6715 9.84635 7.6825C9.8621 7.69351 9.8746 7.70856 9.88252 7.72607C10.404 8.89487 10.854 10.3483 10.6433 11.2533C10.5533 11.6256 10.3068 12.1298 10.0294 12.5959C9.9934 12.6638 9.95404 12.7303 9.91228 12.7944C9.90249 12.8089 9.88926 12.8208 9.87376 12.829C9.85827 12.8371 9.84099 12.8413 9.82348 12.8412H6.61324C6.52684 12.8412 6.47644 12.7476 6.52204 12.6773Z" fill="white"/>
<path d="M20.4362 13.5847V14.3575C20.4362 14.4022 20.409 14.4415 20.3697 14.4588C20.128 14.5625 19.3007 14.9422 18.9568 15.4205C18.0789 16.6421 17.4083 18.3893 15.909 18.3893H9.65464C7.438 18.3893 5.6416 16.5869 5.6416 14.3626V14.2913C5.6416 14.232 5.6896 14.184 5.74888 14.184H9.2356C9.30448 14.184 9.35512 14.2481 9.34888 14.316C9.32433 14.5465 9.36763 14.7791 9.47344 14.9854C9.57482 15.1904 9.73152 15.3631 9.92584 15.4838C10.1202 15.6045 10.3444 15.6684 10.5731 15.6684H12.2992V14.3208H10.5928C10.5728 14.3206 10.5533 14.3149 10.5363 14.3044C10.5193 14.2939 10.5055 14.2789 10.4964 14.2611C10.4873 14.2434 10.4831 14.2235 10.4845 14.2035C10.4858 14.1836 10.4926 14.1644 10.504 14.148C10.5227 14.1197 10.5436 14.0904 10.5657 14.0568C10.7883 13.7364 10.9958 13.4056 11.1873 13.0656C11.3438 12.792 11.4954 12.4997 11.6174 12.2064C11.6421 12.1534 11.6618 12.0991 11.6814 12.0461C11.7148 11.9525 11.7494 11.8649 11.7741 11.7773C11.7986 11.7034 11.8185 11.6256 11.8382 11.5529C11.896 11.3038 11.9207 11.04 11.9207 10.7664C11.9207 10.6591 11.9159 10.5468 11.9058 10.4395C11.901 10.3224 11.8862 10.2053 11.8713 10.0882C11.8598 9.98313 11.8438 9.87863 11.8233 9.77498C11.7976 9.61741 11.7648 9.46109 11.7249 9.3065L11.7112 9.24746C11.6814 9.14018 11.657 9.03794 11.6224 8.93066C11.527 8.60227 11.4175 8.27814 11.2943 7.95914C11.2511 7.83698 11.2019 7.71986 11.1527 7.60274C11.08 7.42634 11.0058 7.26626 10.9382 7.11458C10.9036 7.04546 10.8741 6.98258 10.8446 6.9185C10.8116 6.84639 10.7775 6.77486 10.7421 6.70394C10.7174 6.65114 10.689 6.6017 10.6694 6.55226L10.4584 6.16274C10.4518 6.15095 10.4488 6.13747 10.4498 6.124C10.4508 6.11052 10.4558 6.09765 10.4641 6.08699C10.4724 6.07633 10.4837 6.06835 10.4965 6.06407C10.5093 6.05978 10.5231 6.05937 10.5362 6.0629L11.8554 6.4205H11.859C11.8614 6.4205 11.8629 6.4217 11.8638 6.4217L12.0378 6.4697L12.2289 6.52394L12.2992 6.54362V5.75954C12.2992 5.38106 12.6026 5.0741 12.9772 5.0741C13.1646 5.0741 13.3348 5.15042 13.457 5.27498C13.5789 5.39978 13.6554 5.5697 13.6554 5.75978V6.92354L13.7958 6.9629C13.8074 6.9665 13.8182 6.97192 13.828 6.97898C13.8626 7.0049 13.912 7.04306 13.9746 7.08986C14.0241 7.12922 14.0771 7.17746 14.1412 7.22666C14.2682 7.32914 14.4196 7.4609 14.5862 7.61258C14.6306 7.65098 14.6738 7.69034 14.7134 7.7297C14.9523 7.9496 15.1806 8.18082 15.3974 8.42258C15.4617 8.4953 15.5246 8.56922 15.5886 8.64698C15.6527 8.72594 15.7206 8.80346 15.7797 8.88122C15.8574 8.9849 15.9412 9.09218 16.0139 9.20426C16.0485 9.2573 16.0878 9.31154 16.1212 9.36458C16.2148 9.50618 16.2974 9.65306 16.3763 9.7997C16.4097 9.86762 16.4442 9.94154 16.4738 10.0143C16.5614 10.2103 16.6302 10.4103 16.6746 10.6097C16.6883 10.6529 16.6982 10.6997 16.703 10.7417V10.7515C16.7178 10.8108 16.7229 10.8737 16.7277 10.9378C16.7481 11.1434 16.7365 11.3509 16.6931 11.5529C16.674 11.6402 16.6498 11.7263 16.6204 11.8107C16.5909 11.8947 16.5614 11.982 16.523 12.0646C16.4487 12.2393 16.36 12.4075 16.258 12.5676C16.2246 12.6267 16.1853 12.6895 16.1457 12.7488C16.1025 12.8117 16.0583 12.871 16.0187 12.9288C15.9645 13.0027 15.9066 13.0805 15.8474 13.1496C15.7946 13.2223 15.7401 13.2951 15.681 13.3591C15.6018 13.4538 15.5204 13.5466 15.437 13.6375C15.3875 13.6956 15.3345 13.7549 15.2802 13.8079C15.2274 13.867 15.173 13.92 15.1238 13.9695C15.0412 14.052 14.9721 14.1161 14.9142 14.1691L14.7786 14.2937C14.7585 14.3112 14.7326 14.3209 14.7059 14.3208H13.6552V15.6684H14.9769C15.2717 15.6683 15.5567 15.5628 15.7806 15.3711C15.8584 15.3034 16.1973 15.0099 16.5981 14.5673C16.6115 14.5523 16.629 14.5417 16.6485 14.5366L20.2991 13.4811C20.3151 13.4766 20.332 13.4759 20.3483 13.479C20.3646 13.4821 20.38 13.4889 20.3933 13.4989C20.4065 13.509 20.4172 13.522 20.4246 13.5368C20.432 13.5517 20.4361 13.5681 20.4362 13.5847Z" fill="white"/>
</g>
<defs>
<clipPath id="clip0_52_5">
<rect width="24" height="24" fill="white" transform="translate(0.601562 0.274109)"/>
</clipPath>
</defs>
</svg>
