<svg width="104" height="104" viewBox="0 0 104 104" fill="none" xmlns="http://www.w3.org/2000/svg">
<rect width="104" height="104" rx="30" fill="#00172C"/>
<path d="M60.583 85.255C58.493 85.255 56.498 84.894 54.598 84.172C52.698 83.488 51.14 82.405 49.924 80.923C48.708 79.441 48.081 77.522 48.043 75.166H55.681C55.795 76.04 56.27 76.648 57.106 76.99C57.98 77.332 58.93 77.503 59.956 77.503C60.64 77.503 61.305 77.427 61.951 77.275C62.635 77.123 63.262 76.99 63.832 76.876V84.856C63.262 84.894 62.711 84.97 62.179 85.084C61.647 85.198 61.115 85.255 60.583 85.255ZM51.178 73.342C48.176 73.342 45.535 73.057 43.255 72.487C41.013 71.879 39.132 70.815 37.612 69.295C36.092 67.775 34.952 65.609 34.192 62.797C33.432 59.947 33.052 56.28 33.052 51.796C33.052 47.312 33.432 43.664 34.192 40.852C34.952 38.002 36.092 35.817 37.612 34.297C39.132 32.777 41.013 31.732 43.255 31.162C45.535 30.554 48.176 30.25 51.178 30.25C54.18 30.25 56.802 30.554 59.044 31.162C61.324 31.732 63.224 32.777 64.744 34.297C66.264 35.817 67.404 38.002 68.164 40.852C68.924 43.664 69.304 47.312 69.304 51.796C69.304 56.28 68.924 59.947 68.164 62.797C67.404 65.609 66.264 67.775 64.744 69.295C63.224 70.815 61.324 71.879 59.044 72.487C56.802 73.057 54.18 73.342 51.178 73.342ZM51.178 63.424C52.622 63.424 53.8 63.253 54.712 62.911C55.624 62.569 56.327 61.98 56.821 61.144C57.353 60.308 57.714 59.13 57.904 57.61C58.132 56.09 58.246 54.152 58.246 51.796C58.246 49.326 58.132 47.331 57.904 45.811C57.714 44.291 57.353 43.132 56.821 42.334C56.327 41.498 55.624 40.928 54.712 40.624C53.8 40.32 52.622 40.168 51.178 40.168C49.772 40.168 48.594 40.32 47.644 40.624C46.732 40.928 46.01 41.498 45.478 42.334C44.984 43.132 44.623 44.291 44.395 45.811C44.205 47.331 44.11 49.326 44.11 51.796C44.11 54.152 44.205 56.09 44.395 57.61C44.623 59.13 44.984 60.308 45.478 61.144C46.01 61.98 46.732 62.569 47.644 62.911C48.594 63.253 49.772 63.424 51.178 63.424Z" fill="white"/>
</svg>
