<svg width="105" height="105" viewBox="0 0 105 105" fill="none" xmlns="http://www.w3.org/2000/svg">
<rect x="0.269531" y="0.453613" width="104" height="104" rx="30" fill="#00172C"/>
<path d="M60.8525 85.7086C58.7625 85.7086 56.7675 85.3476 54.8675 84.6256C52.9675 83.9416 51.4095 82.8586 50.1935 81.3766C48.9775 79.8946 48.3505 77.9756 48.3125 75.6196H55.9505C56.0645 76.4936 56.5395 77.1016 57.3755 77.4436C58.2495 77.7856 59.1995 77.9566 60.2255 77.9566C60.9095 77.9566 61.5745 77.8806 62.2205 77.7286C62.9045 77.5766 63.5315 77.4436 64.1015 77.3296V85.3096C63.5315 85.3476 62.9805 85.4236 62.4485 85.5376C61.9165 85.6516 61.3845 85.7086 60.8525 85.7086ZM51.4475 73.7956C48.4455 73.7956 45.8045 73.5106 43.5245 72.9406C41.2825 72.3326 39.4015 71.2686 37.8815 69.7486C36.3615 68.2286 35.2215 66.0626 34.4615 63.2506C33.7015 60.4006 33.3215 56.7336 33.3215 52.2496C33.3215 47.7656 33.7015 44.1176 34.4615 41.3056C35.2215 38.4556 36.3615 36.2706 37.8815 34.7506C39.4015 33.2306 41.2825 32.1856 43.5245 31.6156C45.8045 31.0076 48.4455 30.7036 51.4475 30.7036C54.4495 30.7036 57.0715 31.0076 59.3135 31.6156C61.5935 32.1856 63.4935 33.2306 65.0135 34.7506C66.5335 36.2706 67.6735 38.4556 68.4335 41.3056C69.1935 44.1176 69.5735 47.7656 69.5735 52.2496C69.5735 56.7336 69.1935 60.4006 68.4335 63.2506C67.6735 66.0626 66.5335 68.2286 65.0135 69.7486C63.4935 71.2686 61.5935 72.3326 59.3135 72.9406C57.0715 73.5106 54.4495 73.7956 51.4475 73.7956ZM51.4475 63.8776C52.8915 63.8776 54.0695 63.7066 54.9815 63.3646C55.8935 63.0226 56.5965 62.4336 57.0905 61.5976C57.6225 60.7616 57.9835 59.5836 58.1735 58.0636C58.4015 56.5436 58.5155 54.6056 58.5155 52.2496C58.5155 49.7796 58.4015 47.7846 58.1735 46.2646C57.9835 44.7446 57.6225 43.5856 57.0905 42.7876C56.5965 41.9516 55.8935 41.3816 54.9815 41.0776C54.0695 40.7736 52.8915 40.6216 51.4475 40.6216C50.0415 40.6216 48.8635 40.7736 47.9135 41.0776C47.0015 41.3816 46.2795 41.9516 45.7475 42.7876C45.2535 43.5856 44.8925 44.7446 44.6645 46.2646C44.4745 47.7846 44.3795 49.7796 44.3795 52.2496C44.3795 54.6056 44.4745 56.5436 44.6645 58.0636C44.8925 59.5836 45.2535 60.7616 45.7475 61.5976C46.2795 62.4336 47.0015 63.0226 47.9135 63.3646C48.8635 63.7066 50.0415 63.8776 51.4475 63.8776Z" fill="white"/>
</svg>
