<svg width="32" height="33" viewBox="0 0 32 33" fill="none" xmlns="http://www.w3.org/2000/svg">
<rect width="32" height="32.39" rx="4" fill="#00172C"/>
<g clip-path="url(#clip0_8_394)">
<path fill-rule="evenodd" clip-rule="evenodd" d="M11.2004 9.6C11.4126 9.6 11.616 9.68429 11.7661 9.83431C11.9161 9.98434 12.0004 10.1878 12.0004 10.4V12.0808C12.666 11.4018 13.4935 10.9034 14.405 10.6326C15.3164 10.3618 16.2818 10.3275 17.2102 10.5328C18.1386 10.7382 18.9995 11.1764 19.7117 11.8064C20.4239 12.4364 20.964 13.2372 21.2812 14.1336C21.3197 14.2334 21.3377 14.3399 21.3343 14.4468C21.3309 14.5537 21.3061 14.6589 21.2614 14.756C21.2166 14.8532 21.1529 14.9404 21.0738 15.0125C20.9948 15.0846 20.9021 15.1401 20.8013 15.1757C20.7004 15.2113 20.5934 15.2264 20.4866 15.22C20.3799 15.2135 20.2755 15.1857 20.1796 15.1383C20.0838 15.0908 19.9984 15.0245 19.9286 14.9435C19.8588 14.8625 19.8059 14.7682 19.7732 14.6664C19.5317 13.9839 19.1096 13.3796 18.5517 12.9181C17.9939 12.4565 17.3213 12.1549 16.6056 12.0455C15.89 11.9361 15.158 12.0228 14.4877 12.2966C13.8175 12.5703 13.234 13.0208 12.7996 13.6H15.2004C15.4126 13.6 15.616 13.6843 15.7661 13.8343C15.9161 13.9843 16.0004 14.1878 16.0004 14.4C16.0004 14.6122 15.9161 14.8157 15.7661 14.9657C15.616 15.1157 15.4126 15.2 15.2004 15.2H11.2004C10.9882 15.2 10.7847 15.1157 10.6347 14.9657C10.4847 14.8157 10.4004 14.6122 10.4004 14.4V10.4C10.4004 10.1878 10.4847 9.98434 10.6347 9.83431C10.7847 9.68429 10.9882 9.6 11.2004 9.6ZM11.2068 16.8456C11.3059 16.8106 11.4109 16.7955 11.5158 16.8011C11.6207 16.8066 11.7235 16.8328 11.8183 16.8782C11.9131 16.9235 11.998 16.987 12.0682 17.0652C12.1385 17.1433 12.1926 17.2345 12.2276 17.3336C12.4691 18.0161 12.8912 18.6204 13.449 19.0819C14.0069 19.5435 14.6795 19.8451 15.3951 19.9545C16.1108 20.0639 16.8428 19.9772 17.5131 19.7034C18.1833 19.4297 18.7668 18.9792 19.2012 18.4H16.8004C16.5882 18.4 16.3847 18.3157 16.2347 18.1657C16.0847 18.0157 16.0004 17.8122 16.0004 17.6C16.0004 17.3878 16.0847 17.1843 16.2347 17.0343C16.3847 16.8843 16.5882 16.8 16.8004 16.8H20.8004C21.0126 16.8 21.216 16.8843 21.3661 17.0343C21.5161 17.1843 21.6004 17.3878 21.6004 17.6V21.6C21.6004 21.8122 21.5161 22.0157 21.3661 22.1657C21.216 22.3157 21.0126 22.4 20.8004 22.4C20.5882 22.4 20.3847 22.3157 20.2347 22.1657C20.0847 22.0157 20.0004 21.8122 20.0004 21.6V19.9192C19.3348 20.5982 18.5072 21.0966 17.5958 21.3674C16.6843 21.6382 15.719 21.6725 14.7906 21.4672C13.8622 21.2618 13.0013 20.8236 12.2891 20.1936C11.5769 19.5636 11.0368 18.7628 10.7196 17.8664C10.6846 17.7673 10.6695 17.6623 10.6751 17.5574C10.6806 17.4525 10.7068 17.3497 10.7522 17.2549C10.7975 17.1601 10.861 17.0752 10.9392 17.005C11.0173 16.9347 11.1077 16.8806 11.2068 16.8456Z" fill="white"/>
</g>
<defs>
<clipPath id="clip0_8_394">
<rect width="16" height="16" fill="white" transform="translate(8 8)"/>
</clipPath>
</defs>
</svg>
