<svg width="35" height="28" viewBox="0 0 35 28" fill="none" xmlns="http://www.w3.org/2000/svg">
<path d="M30.7982 7.40529C30.8199 7.69931 30.8199 7.9934 30.8199 8.28742C30.8199 17.2555 23.7641 27.5889 10.8682 27.5889C6.89517 27.5889 3.20444 26.4757 0.0998535 24.5436C0.664342 24.6065 1.20704 24.6275 1.79325 24.6275C5.07146 24.6275 8.08923 23.5564 10.4991 21.7292C7.41622 21.6662 4.83268 19.7129 3.94255 17.0246C4.37679 17.0875 4.81096 17.1295 5.26693 17.1295C5.8965 17.1295 6.52615 17.0455 7.11229 16.8986C3.89917 16.2684 1.48926 13.5381 1.48926 10.2407V10.1567C2.42276 10.6608 3.50837 10.9758 4.65893 11.0177C2.77013 9.79957 1.53269 7.72032 1.53269 5.368C1.53269 4.10786 1.87999 2.95271 2.48792 1.94457C5.93987 6.0611 11.1287 8.74941 16.947 9.0435C16.8384 8.53943 16.7733 8.01441 16.7733 7.48933C16.7733 3.7508 19.8996 0.705444 23.7857 0.705444C25.8048 0.705444 27.6284 1.52455 28.9094 2.84772C30.4942 2.5537 32.0139 1.9866 33.36 1.20951C32.8389 2.78475 31.7317 4.10793 30.2771 4.94798C31.6883 4.80103 33.056 4.4229 34.3152 3.89788C33.3601 5.242 32.166 6.43911 30.7982 7.40529Z" fill="#00172C"/>
</svg>
